<svg width="207" height="232" viewBox="0 0 207 232" fill="none" xmlns="http://www.w3.org/2000/svg">
<g filter="url(#filter0_ddd_1_194)">
<rect x="24.5369" y="8.83527" width="157.933" height="183.032" rx="19.0044" fill="url(#paint0_linear_1_194)"/>
</g>
<mask id="mask0_1_194" style="mask-type:alpha" maskUnits="userSpaceOnUse" x="24" y="8" width="159" height="184">
<rect x="24.5369" y="8.83527" width="157.933" height="183.032" rx="19.0044" fill="url(#paint1_linear_1_194)"/>
</mask>
<g mask="url(#mask0_1_194)">
<path d="M47.857 50.3662C47.857 59.4413 40.5002 66.7981 31.425 66.7981C22.3499 66.7981 14.9931 59.4413 14.9931 50.3662C14.9931 45.5815 17.0381 41.2744 20.3018 38.2713C23.2283 35.5785 27.1347 33.9342 31.425 33.9342C40.5002 33.9342 47.857 41.2911 47.857 50.3662Z" fill="#D15842"/>
<path d="M95.2807 50.3662C95.2807 59.4413 87.9239 66.7981 78.8488 66.7981C69.7737 66.7981 62.4168 59.4413 62.4168 50.3662C62.4168 49.2069 62.5369 48.0758 62.7652 46.9844C64.3244 39.5316 70.9329 33.9342 78.8488 33.9342C87.9239 33.9342 95.2807 41.2911 95.2807 50.3662Z" fill="#D15842"/>
<path d="M76.8272 30.7221C76.8272 38.9924 70.7174 45.8356 62.7652 46.9844C61.9914 47.0961 61.2001 47.154 60.3952 47.154C52.4194 47.154 45.7708 41.4715 44.2771 33.9342C44.0712 32.8954 43.9633 31.8213 43.9633 30.7221C43.9633 29.2783 44.1495 27.8781 44.4992 26.544C46.3475 19.4924 52.7638 14.2901 60.3952 14.2901C69.4703 14.2901 76.8272 21.6469 76.8272 30.7221Z" fill="#D15842"/>
<path d="M47.857 50.3662C47.857 59.4413 40.5002 66.7981 31.425 66.7981H78.8488C69.7737 66.7981 62.4168 59.4413 62.4168 50.3662C62.4168 49.2069 62.5369 48.0758 62.7652 46.9844C61.9914 47.0961 61.2001 47.154 60.3952 47.154C52.4194 47.154 45.7708 41.4715 44.2771 33.9342H33.5584H31.425C40.5002 33.9342 47.857 41.2911 47.857 50.3662Z" fill="#D15842"/>
<path d="M44.2771 33.9342C44.0712 32.8954 43.9633 31.8213 43.9633 30.7221C43.9633 29.2783 44.1495 27.8781 44.4992 26.544C43.126 29.0074 39.0155 33.9342 33.5584 33.9342H44.2771Z" fill="#D15842"/>
<path d="M127.096 37.4042C127.096 43.4147 122.224 48.2873 116.213 48.2873C110.203 48.2873 105.33 43.4147 105.33 37.4042C105.33 34.2352 106.684 31.3826 108.846 29.3936C110.784 27.6101 113.372 26.5211 116.213 26.5211C122.224 26.5211 127.096 31.3936 127.096 37.4042Z" fill="#D15842"/>
<path d="M158.505 37.4042C158.505 43.4147 153.633 48.2873 147.622 48.2873C141.612 48.2873 136.739 43.4147 136.739 37.4042C136.739 36.6364 136.819 35.8872 136.97 35.1644C138.003 30.2283 142.38 26.5211 147.622 26.5211C153.633 26.5211 158.505 31.3936 158.505 37.4042Z" fill="#D15842"/>
<path d="M146.283 24.3936C146.283 29.8712 142.237 34.4035 136.97 35.1644C136.458 35.2384 135.933 35.2767 135.4 35.2767C130.118 35.2767 125.714 31.5131 124.725 26.5211C124.589 25.8331 124.517 25.1217 124.517 24.3936C124.517 23.4374 124.641 22.51 124.872 21.6265C126.096 16.9561 130.346 13.5106 135.4 13.5106C141.411 13.5106 146.283 18.3831 146.283 24.3936Z" fill="#D15842"/>
<path d="M127.096 37.4042C127.096 43.4147 122.224 48.2873 116.213 48.2873H147.622C141.612 48.2873 136.739 43.4147 136.739 37.4042C136.739 36.6364 136.819 35.8872 136.97 35.1644C136.458 35.2384 135.933 35.2767 135.4 35.2767C130.118 35.2767 125.714 31.5131 124.725 26.5211H117.626H116.213C122.224 26.5211 127.096 31.3936 127.096 37.4042Z" fill="#D15842"/>
<path d="M124.725 26.5211C124.589 25.8331 124.517 25.1217 124.517 24.3936C124.517 23.4374 124.641 22.51 124.872 21.6265C123.963 23.258 121.24 26.5211 117.626 26.5211H124.725Z" fill="#D15842"/>
<circle cx="95.4155" cy="87.8679" r="14.5666" transform="rotate(-30 95.4155 87.8679)" fill="#D15842"/>
<path d="M101.299 88.2197C101.819 89.1201 101.954 90.0557 101.704 91.0266C101.454 91.9974 100.916 92.8615 100.09 93.6189L100.718 94.7064C100.893 95.0104 100.933 95.3226 100.838 95.6429C100.76 95.9682 100.57 96.2186 100.266 96.3941C99.9733 96.5629 99.667 96.5994 99.3467 96.5037C99.0331 96.4197 98.7885 96.2257 98.613 95.9216L98.0459 94.9393C97.3807 95.2455 96.7242 95.4452 96.0764 95.5385C95.4404 95.6251 94.7553 95.5996 94.0211 95.4622C93.5433 95.3639 93.2065 95.1451 93.0107 94.806C92.8555 94.5371 92.8198 94.2458 92.9038 93.9322C92.9811 93.607 93.1601 93.3633 93.4407 93.2013C93.6629 93.073 93.9022 93.0284 94.1586 93.0674C94.6899 93.1505 95.1699 93.1852 95.5986 93.1716C96.0206 93.1462 96.4414 93.0514 96.861 92.8871L94.8862 89.4667C92.286 90.391 90.4322 89.8943 89.325 87.9765C88.7646 87.0059 88.633 86.0217 88.93 85.0239C89.2203 84.0143 89.8453 83.139 90.805 82.3978L90.4708 81.8189C90.2953 81.5149 90.2495 81.2061 90.3335 80.8925C90.4225 80.5605 90.619 80.3067 90.923 80.1312C91.2154 79.9624 91.5217 79.9259 91.842 80.0216C92.1556 80.1056 92.4001 80.2996 92.5757 80.6037L92.9504 81.2527C94.0456 80.8542 95.0735 80.7441 96.034 80.9224C96.5284 80.9956 96.8768 81.2076 97.0794 81.5584C97.2347 81.8273 97.2737 82.1244 97.1964 82.4497C97.1124 82.7633 96.9359 82.9977 96.6669 83.153C96.4915 83.2542 96.3033 83.2928 96.1022 83.2685C95.5826 83.1787 94.9405 83.2143 94.1758 83.3751L96.0493 86.6201C97.3389 86.2342 98.3928 86.1558 99.2112 86.385C100.023 86.6024 100.719 87.214 101.299 88.2197ZM91.3442 86.6938C91.567 87.0797 91.872 87.3246 92.2594 87.4284C92.64 87.5205 93.1105 87.4983 93.671 87.3618L91.9899 84.45C91.5644 84.8204 91.2998 85.1992 91.196 85.5866C91.0922 85.9739 91.1416 86.343 91.3442 86.6938ZM98.8747 91.514C99.1329 91.1779 99.303 90.8379 99.3852 90.4942C99.4607 90.1388 99.4208 89.8267 99.2655 89.5577C99.0764 89.2303 98.8209 89.0036 98.4987 88.8778C98.1699 88.7402 97.7652 88.701 97.2848 88.7601L98.8747 91.514Z" fill="#ED654C"/>
<circle cx="57.9242" cy="114.27" r="14.5666" transform="rotate(30 57.9242 114.27)" fill="#D15842"/>
<path d="M60.5612 119.541C60.0414 120.442 59.2985 121.026 58.3326 121.295C57.3667 121.564 56.3494 121.53 55.2806 121.193L54.6528 122.281C54.4772 122.585 54.2268 122.776 53.9016 122.853C53.5812 122.949 53.2691 122.909 52.965 122.733C52.6727 122.564 52.4879 122.317 52.4106 121.992C52.3266 121.679 52.3723 121.37 52.5479 121.066L53.115 120.083C52.5173 119.66 52.0161 119.192 51.6114 118.677C51.2184 118.17 50.8978 117.564 50.6498 116.859C50.4961 116.396 50.5171 115.995 50.7129 115.656C50.8682 115.387 51.1026 115.211 51.4162 115.127C51.7365 115.031 52.037 115.064 52.3176 115.226C52.5398 115.355 52.6981 115.539 52.7925 115.781C52.9862 116.283 53.1961 116.716 53.4223 117.08C53.6552 117.433 53.9477 117.75 54.2999 118.031L56.2747 114.611C54.174 112.821 53.6773 110.967 54.7845 109.05C55.3449 108.079 56.1314 107.473 57.1441 107.231C58.1635 106.978 59.2341 107.081 60.3559 107.542L60.6901 106.963C60.8656 106.659 61.1102 106.465 61.4237 106.381C61.7557 106.292 62.0738 106.335 62.3778 106.511C62.6702 106.68 62.855 106.927 62.9322 107.252C63.0162 107.565 62.9705 107.874 62.795 108.178L62.4202 108.827C63.313 109.577 63.9222 110.412 64.2481 111.333C64.4319 111.797 64.4225 112.205 64.22 112.556C64.0647 112.825 63.8269 113.007 63.5066 113.103C63.193 113.187 62.9018 113.151 62.6328 112.996C62.4574 112.895 62.3299 112.751 62.2504 112.565C62.0683 112.07 61.7165 111.532 61.1949 110.95L59.3214 114.195C60.3004 115.119 60.8952 115.992 61.1059 116.815C61.3234 117.627 61.1418 118.536 60.5612 119.541ZM56.905 110.157C56.6822 110.543 56.6227 110.929 56.7264 111.317C56.837 111.692 57.0915 112.089 57.4899 112.506L59.171 109.594C58.6375 109.411 58.1771 109.371 57.7898 109.475C57.4024 109.579 57.1075 109.806 56.905 110.157ZM56.4959 119.089C56.916 119.144 57.2955 119.121 57.6342 119.021C57.9798 118.908 58.2302 118.718 58.3854 118.449C58.5745 118.121 58.643 117.787 58.5909 117.445C58.5456 117.091 58.3772 116.721 58.0858 116.335L56.4959 119.089Z" fill="#ED654C"/>
</g>
<path d="M55.0786 143.049C55.0786 143.049 53.4484 139.671 48.9017 139.671C44.9048 139.671 41.6641 142.715 41.6641 146.908C41.6641 151.102 44.9048 154.146 48.9017 154.146C53.1931 154.146 56.149 150.827 55.6678 145.759H48.5874V147.979H52.9869C52.9083 149.923 51.3076 151.927 48.9017 151.927C46.2797 151.927 44.3156 149.825 44.3156 146.908C44.3156 143.992 46.2797 141.89 48.9017 141.89C50.9835 141.89 52.0441 143.049 52.0441 143.049H55.0786ZM65.1934 151.485C65.1934 151.485 64.5747 152.094 63.1017 152.094C61.7465 152.094 60.7448 151.249 60.4011 150.061H68.4144C68.7287 145.936 65.979 143.717 63.1017 143.717C60.2244 143.717 57.789 145.858 57.789 148.931C57.789 152.005 60.2244 154.146 63.1017 154.146C66.5879 154.146 68.0413 151.485 68.0413 151.485H65.1934ZM63.1017 145.769C64.5256 145.769 65.5568 146.712 65.8514 148.008H60.352C60.6466 146.712 61.6679 145.769 63.1017 145.769ZM69.5339 145.966H71.6453V149.521C71.6453 152.486 72.4604 154.146 75.2591 154.146C76.4081 154.146 77.1544 153.95 77.1544 153.95V151.985C77.1544 151.985 76.3688 152.094 75.7501 152.094C74.3851 152.094 74.1102 151.18 74.1102 149.521V145.966H77.1544V143.913H74.1102V140.977H71.6453V143.913H69.5339V145.966ZM84.6178 148.931C84.6178 151.809 86.6604 154.146 89.6359 154.146C91.7964 154.146 92.7293 152.506 92.7784 152.427V153.164C92.7784 155.747 92.1597 157.121 90.2546 157.121C88.4673 157.121 88.0745 155.933 88.0745 155.933H85.4329C85.4329 155.933 86.0123 159.174 90.0582 159.174C93.8685 159.174 95.2433 156.876 95.2433 153.459V143.913H92.7784V145.445C92.7293 145.357 91.7964 143.717 89.6359 143.717C86.6604 143.717 84.6178 146.054 84.6178 148.931ZM87.0827 148.931C87.0827 147.183 88.1825 145.769 89.9305 145.769C91.6785 145.769 92.7784 147.183 92.7784 148.931C92.7784 150.679 91.6785 152.094 89.9305 152.094C88.1825 152.094 87.0827 150.679 87.0827 148.931ZM104.435 143.913C104.435 143.913 103.865 143.717 103.178 143.717C100.9 143.717 100.261 145.494 100.261 145.494V143.913H97.7965V153.95H100.261V149.01C100.261 146.977 101.381 145.799 103.07 145.769C103.767 145.769 104.435 145.897 104.435 145.897V143.913ZM112.625 151.485C112.625 151.485 112.006 152.094 110.533 152.094C109.178 152.094 108.177 151.249 107.833 150.061H115.846C116.16 145.936 113.411 143.717 110.533 143.717C107.656 143.717 105.221 145.858 105.221 148.931C105.221 152.005 107.656 154.146 110.533 154.146C114.02 154.146 115.473 151.485 115.473 151.485H112.625ZM110.533 145.769C111.957 145.769 112.988 146.712 113.283 148.008H107.784C108.078 146.712 109.1 145.769 110.533 145.769ZM117.653 148.931C117.653 151.809 119.696 154.146 122.671 154.146C124.891 154.146 125.814 152.418 125.814 152.418V153.95H128.279V143.913H125.814V145.445C125.814 145.445 124.891 143.717 122.671 143.717C119.696 143.717 117.653 146.054 117.653 148.931ZM120.118 148.931C120.118 147.183 121.218 145.769 122.966 145.769C124.714 145.769 125.814 147.183 125.814 148.931C125.814 150.679 124.714 152.094 122.966 152.094C121.218 152.094 120.118 150.679 120.118 148.931ZM130.243 145.966H132.354V149.521C132.354 152.486 133.169 154.146 135.968 154.146C137.117 154.146 137.863 153.95 137.863 153.95V151.985C137.863 151.985 137.077 152.094 136.459 152.094C135.094 152.094 134.819 151.18 134.819 149.521V145.966H137.863V143.913H134.819V140.977H132.354V143.913H130.243V145.966ZM44.5218 164.062H42.057V178.95H44.5218V164.062ZM46.8885 173.931C46.8885 177.005 49.3239 179.146 52.2012 179.146C55.0786 179.146 57.514 177.005 57.514 173.931C57.514 170.858 55.0786 168.717 52.2012 168.717C49.3239 168.717 46.8885 170.858 46.8885 173.931ZM49.3534 173.931C49.3534 172.183 50.4532 170.769 52.2012 170.769C53.9492 170.769 55.0491 172.183 55.0491 173.931C55.0491 175.679 53.9492 177.094 52.2012 177.094C50.4532 177.094 49.3534 175.679 49.3534 173.931ZM59.2816 173.931C59.2816 176.809 61.3242 179.146 64.2998 179.146C66.5191 179.146 67.4422 177.418 67.4422 177.418V178.95H69.9071V168.913H67.4422V170.445C67.4422 170.445 66.5191 168.717 64.2998 168.717C61.3242 168.717 59.2816 171.054 59.2816 173.931ZM61.7465 173.931C61.7465 172.183 62.8464 170.769 64.5944 170.769C66.3424 170.769 67.4422 172.183 67.4422 173.931C67.4422 175.679 66.3424 177.094 64.5944 177.094C62.8464 177.094 61.7465 175.679 61.7465 173.931ZM82.2217 174.01C82.2217 170.887 80.9745 168.717 77.7142 168.717C75.5537 168.717 74.9252 170.494 74.9252 170.494V168.913H72.4604V178.95H74.9252V174.01C74.9252 172.242 75.4948 170.769 77.341 170.769C79.1872 170.769 79.7568 172.242 79.7568 174.01V178.95H82.2217V174.01ZM85.4918 175.002H87.7505L87.9469 164.867H85.2954L85.4918 175.002ZM85.1677 177.594C85.1677 178.4 85.8159 179.048 86.6211 179.048C87.4264 179.048 88.0843 178.4 88.0843 177.594C88.0843 176.789 87.4264 176.131 86.6211 176.131C85.8159 176.131 85.1677 176.789 85.1677 177.594Z" fill="white"/>
<defs>
<filter id="filter0_ddd_1_194" x="0.536926" y="0.835266" width="205.933" height="231.032" filterUnits="userSpaceOnUse" color-interpolation-filters="sRGB">
<feFlood flood-opacity="0" result="BackgroundImageFix"/>
<feColorMatrix in="SourceAlpha" type="matrix" values="0 0 0 0 0 0 0 0 0 0 0 0 0 0 0 0 0 0 127 0" result="hardAlpha"/>
<feOffset/>
<feGaussianBlur stdDeviation="0.5"/>
<feColorMatrix type="matrix" values="0 0 0 0 0 0 0 0 0 0 0 0 0 0 0 0 0 0 0.04 0"/>
<feBlend mode="normal" in2="BackgroundImageFix" result="effect1_dropShadow_1_194"/>
<feColorMatrix in="SourceAlpha" type="matrix" values="0 0 0 0 0 0 0 0 0 0 0 0 0 0 0 0 0 0 127 0" result="hardAlpha"/>
<feOffset dy="2"/>
<feGaussianBlur stdDeviation="3"/>
<feColorMatrix type="matrix" values="0 0 0 0 0 0 0 0 0 0 0 0 0 0 0 0 0 0 0.04 0"/>
<feBlend mode="normal" in2="effect1_dropShadow_1_194" result="effect2_dropShadow_1_194"/>
<feColorMatrix in="SourceAlpha" type="matrix" values="0 0 0 0 0 0 0 0 0 0 0 0 0 0 0 0 0 0 127 0" result="hardAlpha"/>
<feOffset dy="16"/>
<feGaussianBlur stdDeviation="12"/>
<feColorMatrix type="matrix" values="0 0 0 0 0 0 0 0 0 0 0 0 0 0 0 0 0 0 0.06 0"/>
<feBlend mode="normal" in2="effect2_dropShadow_1_194" result="effect3_dropShadow_1_194"/>
<feBlend mode="normal" in="SourceGraphic" in2="effect3_dropShadow_1_194" result="shape"/>
</filter>
<linearGradient id="paint0_linear_1_194" x1="103.504" y1="8.83527" x2="103.504" y2="191.867" gradientUnits="userSpaceOnUse">
<stop stop-color="#ED654C"/>
<stop offset="1" stop-color="#D05842"/>
</linearGradient>
<linearGradient id="paint1_linear_1_194" x1="103.504" y1="8.83527" x2="103.504" y2="191.867" gradientUnits="userSpaceOnUse">
<stop stop-color="#70BDF0"/>
<stop offset="1" stop-color="#90C9EF"/>
</linearGradient>
</defs>
</svg>
